<mxfile host="app.diagrams.net" modified="2023-05-31T08:51:33.751Z" agent="Mozilla/5.0 (Windows NT 10.0; Win64; x64) AppleWebKit/537.36 (KHTML, like Gecko) Chrome/113.0.0.0 Safari/537.36" etag="S_hGHsPJDLdLJ8IwN5GI" version="21.1.9" type="device">
  <diagram id="C5RBs43oDa-KdzZeNtuy" name="Page-1">
    <mxGraphModel dx="1194" dy="738" grid="0" gridSize="10" guides="1" tooltips="1" connect="1" arrows="1" fold="1" page="1" pageScale="1" pageWidth="827" pageHeight="1169" math="0" shadow="0">
      <root>
        <mxCell id="WIyWlLk6GJQsqaUBKTNV-0" />
        <mxCell id="WIyWlLk6GJQsqaUBKTNV-1" parent="WIyWlLk6GJQsqaUBKTNV-0" />
        <mxCell id="hzo_TGVIDgafTTq2jEPT-28" value="&lt;p style=&quot;margin:0px;margin-top:4px;text-align:center;&quot;&gt;&lt;i&gt;&amp;lt;&amp;lt;Interface&amp;gt;&amp;gt;&lt;br&gt;&lt;b&gt;Builder&lt;/b&gt;&lt;/i&gt;&lt;/p&gt;&lt;hr size=&quot;1&quot;&gt;&lt;p style=&quot;margin:0px;margin-left:4px;&quot;&gt;&lt;/p&gt;&lt;p style=&quot;margin:0px;margin-left:4px;&quot;&gt;&lt;i&gt;+ buildPart()&lt;br&gt;&lt;/i&gt;&lt;/p&gt;" style="verticalAlign=top;align=left;overflow=fill;fontSize=12;fontFamily=Helvetica;html=1;" parent="WIyWlLk6GJQsqaUBKTNV-1" vertex="1">
          <mxGeometry x="395" y="275" width="145" height="64" as="geometry" />
        </mxCell>
        <mxCell id="hzo_TGVIDgafTTq2jEPT-30" value="Director" style="swimlane;fontStyle=1;align=center;verticalAlign=top;childLayout=stackLayout;horizontal=1;startSize=35;horizontalStack=0;resizeParent=1;resizeParentMax=0;resizeLast=0;collapsible=1;marginBottom=0;" parent="WIyWlLk6GJQsqaUBKTNV-1" vertex="1">
          <mxGeometry x="96" y="273" width="177" height="68" as="geometry" />
        </mxCell>
        <mxCell id="Boheu73tNtWf5Z_OG5ry-1" value="+ construct()" style="text;strokeColor=none;fillColor=none;align=left;verticalAlign=top;spacingLeft=4;spacingRight=4;overflow=hidden;rotatable=0;points=[[0,0.5],[1,0.5]];portConstraint=eastwest;" vertex="1" parent="hzo_TGVIDgafTTq2jEPT-30">
          <mxGeometry y="35" width="177" height="33" as="geometry" />
        </mxCell>
        <mxCell id="hzo_TGVIDgafTTq2jEPT-34" value="ConcreteBuilder" style="swimlane;fontStyle=1;align=center;verticalAlign=top;childLayout=stackLayout;horizontal=1;startSize=26;horizontalStack=0;resizeParent=1;resizeParentMax=0;resizeLast=0;collapsible=1;marginBottom=0;" parent="WIyWlLk6GJQsqaUBKTNV-1" vertex="1">
          <mxGeometry x="390.5" y="484" width="154" height="71" as="geometry" />
        </mxCell>
        <mxCell id="hzo_TGVIDgafTTq2jEPT-35" value="+ buildPart()&#xa;+ getResult()" style="text;strokeColor=none;fillColor=none;align=left;verticalAlign=top;spacingLeft=4;spacingRight=4;overflow=hidden;rotatable=0;points=[[0,0.5],[1,0.5]];portConstraint=eastwest;" parent="hzo_TGVIDgafTTq2jEPT-34" vertex="1">
          <mxGeometry y="26" width="154" height="45" as="geometry" />
        </mxCell>
        <mxCell id="kusxtE2EhlwemqQMvcZW-4" value="" style="html=1;verticalAlign=bottom;labelBackgroundColor=none;startArrow=oval;startFill=0;startSize=8;endArrow=none;rounded=0;entryX=0.5;entryY=0;entryDx=0;entryDy=0;entryPerimeter=0;dashed=1;dashPattern=8 8;exitX=0.504;exitY=1.033;exitDx=0;exitDy=0;exitPerimeter=0;" parent="WIyWlLk6GJQsqaUBKTNV-1" target="kusxtE2EhlwemqQMvcZW-5" edge="1">
          <mxGeometry x="-0.0549" y="19" relative="1" as="geometry">
            <mxPoint x="182.70800000000008" y="340.99" as="sourcePoint" />
            <mxPoint x="120" y="557" as="targetPoint" />
            <mxPoint x="-1" as="offset" />
          </mxGeometry>
        </mxCell>
        <mxCell id="kusxtE2EhlwemqQMvcZW-5" value="&lt;div&gt;&lt;span style=&quot;background-color: initial;&quot;&gt;// some code...&lt;/span&gt;&lt;br&gt;&lt;/div&gt;&lt;div&gt;for all objects in structure {&lt;/div&gt;&lt;div&gt;&amp;nbsp; &amp;nbsp; builder -&amp;gt; BuildPart()&lt;/div&gt;&lt;div&gt;}&lt;/div&gt;&lt;div&gt;// some code...&lt;/div&gt;" style="shape=note2;boundedLbl=1;whiteSpace=wrap;html=1;size=25;verticalAlign=middle;align=left;labelPosition=center;verticalLabelPosition=middle;" parent="WIyWlLk6GJQsqaUBKTNV-1" vertex="1">
          <mxGeometry x="57" y="460" width="250" height="99" as="geometry" />
        </mxCell>
        <mxCell id="kusxtE2EhlwemqQMvcZW-7" value="" style="endArrow=block;endSize=10;endFill=0;shadow=0;strokeWidth=1;rounded=0;edgeStyle=elbowEdgeStyle;elbow=vertical;entryX=0.5;entryY=1;entryDx=0;entryDy=0;exitX=0.5;exitY=0;exitDx=0;exitDy=0;dashed=1;dashPattern=8 8;labelBackgroundColor=none;fontColor=default;" parent="WIyWlLk6GJQsqaUBKTNV-1" source="hzo_TGVIDgafTTq2jEPT-34" target="hzo_TGVIDgafTTq2jEPT-28" edge="1">
          <mxGeometry width="160" relative="1" as="geometry">
            <mxPoint x="540" y="471" as="sourcePoint" />
            <mxPoint x="447.5" y="378" as="targetPoint" />
          </mxGeometry>
        </mxCell>
        <mxCell id="kusxtE2EhlwemqQMvcZW-18" style="edgeStyle=orthogonalEdgeStyle;rounded=0;orthogonalLoop=1;jettySize=auto;html=1;dashed=1;dashPattern=8 8;endSize=10;endArrow=open;endFill=0;entryX=0;entryY=0.5;entryDx=0;entryDy=0;exitX=1.016;exitY=0.111;exitDx=0;exitDy=0;exitPerimeter=0;" parent="WIyWlLk6GJQsqaUBKTNV-1" source="hzo_TGVIDgafTTq2jEPT-35" target="iwZgGUaFQet_Ydz45WWo-0" edge="1">
          <mxGeometry relative="1" as="geometry">
            <mxPoint x="633" y="547" as="sourcePoint" />
            <mxPoint x="719" y="493" as="targetPoint" />
          </mxGeometry>
        </mxCell>
        <mxCell id="iwZgGUaFQet_Ydz45WWo-0" value="Product" style="html=1;" parent="WIyWlLk6GJQsqaUBKTNV-1" vertex="1">
          <mxGeometry x="649" y="497" width="83" height="36" as="geometry" />
        </mxCell>
        <mxCell id="iwZgGUaFQet_Ydz45WWo-6" value="" style="endArrow=open;endFill=0;endSize=12;html=1;rounded=0;startArrow=diamondThin;startFill=0;startSize=14;exitX=1;exitY=0.5;exitDx=0;exitDy=0;" parent="WIyWlLk6GJQsqaUBKTNV-1" source="hzo_TGVIDgafTTq2jEPT-30" target="hzo_TGVIDgafTTq2jEPT-28" edge="1">
          <mxGeometry width="160" relative="1" as="geometry">
            <mxPoint x="268" y="369" as="sourcePoint" />
            <mxPoint x="428" y="369" as="targetPoint" />
          </mxGeometry>
        </mxCell>
        <mxCell id="iwZgGUaFQet_Ydz45WWo-8" value="builder" style="edgeLabel;html=1;align=center;verticalAlign=middle;resizable=0;points=[];" parent="iwZgGUaFQet_Ydz45WWo-6" vertex="1" connectable="0">
          <mxGeometry x="0.275" y="1" relative="1" as="geometry">
            <mxPoint x="-13" y="1" as="offset" />
          </mxGeometry>
        </mxCell>
      </root>
    </mxGraphModel>
  </diagram>
</mxfile>
